PathFileType	4	(X/Y/Z)	C:\Users\°ÂÌØÂü\Desktop\20210112\bx_y_0_501-Unnamed.trc
DataRate	CameraRate	NumFrames	NumMarkers	Units	OrigDataRate	OrigDataStartFrame	OrigNumFrames
50.00	50.00	       4	0	mm	50.00	377	       603
Frame#	Time	
		

377	7.520	-664.42078	-54.61419	1555.22119	-640.78760	287.18240	880.36346	-581.25806	224.39859	817.02551	-685.15454	270.23227	712.49548	-578.90997	4.03067	805.46655	-674.16730	-48.09170	735.89355	-726.75861	252.83350	640.12720	-589.55640	1.79546	1056.10132	-731.12927	249.39697	576.63062	-660.66168	22.24287	519.88043	-771.51135	255.93321	502.80759	-675.86450	210.90463	533.22223	-647.78363	-63.01970	868.57532	-663.60901	-67.67345	162.88600	-711.36053	153.67720	216.69104	-771.94440	222.92438	205.16872	-622.80176	-78.07732	158.73006	-882.43616	296.14734	144.72641	-675.82959	55.00182	157.93358	-603.93774	19.96812	166.62650	-676.00598	174.91443	158.13280	-594.86560	222.50531	173.45001	-667.34674	299.80655	159.33154	-629.86835	306.79337	161.81699	-559.49817	258.53735	165.75294	-528.03156	304.52658	146.55516	-666.19177	127.88831	1849.45020	-687.85138	306.14209	1541.06702	-517.73572	-72.35222	142.92180	-796.38513	172.17656	184.29686	-766.96619	-5.13799	209.70462	-795.18152	54.66688	175.75331	-687.85400	148.84152	573.84845	-757.94153	-30.14563	492.04190	-559.56531	-37.91960	164.11971	-876.13934	-78.71100	141.67271				-698.68256	-23.67122	614.39984	-709.33704	-20.83867	569.31384	-716.26147	78.14069	215.93173	-588.63708	225.66461	1074.00806	-788.99286	102.08804	1056.33484	-680.46112	83.96086	573.71796	
378	7.540	-665.86548	-54.39117	1555.40771	-639.17609	287.89929	880.61615	-579.49170	224.59343	816.70654	-684.37958	268.88171	711.33246	-577.41754	5.45444	805.09985	-672.67419	-47.98170	736.15637	-725.61285	252.64995	639.96173	-587.65253	2.51509	1055.66760	-730.01996	249.14983	576.42322	-659.71820	22.43063	519.75403	-770.87653	256.30774	503.53494	-675.03668	211.10190	533.04639	-646.00848	-63.47153	868.08856	-663.63800	-67.57793	162.96223	-711.02869	153.42076	216.85188	-771.73163	223.01320	205.02748	-622.66730	-77.97305	158.59322	-882.45593	296.22400	144.77756	-675.66998	54.91089	158.17819	-603.98608	20.06329	166.74590	-675.84326	174.97612	158.17073	-594.64728	222.43617	173.50557	-667.25916	299.92520	159.35263	-629.81415	306.73001	161.67641	-559.38098	258.53726	165.65770	-528.01697	304.19867	146.71025	-668.53485	128.38101	1849.55273	-689.92621	306.74927	1540.94238	-517.66534	-72.36552	142.71451	-796.17145	172.16649	184.35014	-767.02588	-5.14756	209.81964	-795.23016	54.66007	175.68874	-686.63788	149.32127	573.83069	-757.67889	-29.67925	491.44354	-559.51874	-38.05703	164.26323	-876.02838	-78.54763	141.55200				-697.71893	-23.89566	614.61151	-708.88666	-20.34742	569.11499	-716.12036	78.08541	215.90576	-585.61615	226.88603	1074.66187	-787.05023	101.86096	1056.26501	-680.34216	83.93392	574.23743	
379	7.560	-667.79840	-53.96785	1555.58386	-637.56647	287.37708	880.33203	-577.72174	224.90727	816.45349	-682.18958	269.43484	711.27545	-575.95728	5.45055	805.24976	-670.81097	-47.25034	735.77551	-724.43695	252.72479	639.84192	-585.89349	2.44268	1055.88000	-728.64960	249.76671	576.58209	-658.92926	22.68625	519.84875	-769.98346	256.89294	503.59528	-674.18225	210.85966	532.83594	-644.02673	-63.00225	867.97797	-663.36597	-67.48891	163.00499	-711.02197	153.01494	216.44727	-771.68628	223.03767	205.11539	-622.63849	-78.03648	158.68738	-882.55920	296.25497	144.75124	-675.53595	54.74093	158.15746	-603.68201	20.02375	166.60429	-675.65851	174.99568	158.14159	-594.64728	222.43617	173.50557	-667.34363	299.97546	159.33340	-629.81415	306.73001	161.67641	-559.44183	258.43613	165.64345	-527.90778	304.36624	146.72336	-670.67273	129.02878	1849.53381	-692.16168	307.13831	1540.50098	-517.33807	-72.61223	143.23663	-796.12372	172.25294	184.48618	-766.60052	-4.95844	209.72057	-794.93616	54.84054	175.91188	-686.16705	149.41975	573.60309	-757.05725	-29.54424	491.73041	-559.55066	-38.01669	163.92514	-876.15070	-78.40914	141.55756				-696.11023	-23.39140	614.17413	-707.70734	-20.12252	568.79828	-716.12744	78.51453	216.34418	-583.45758	227.33603	1074.85889	-785.03247	102.41441	1055.96326	-679.21088	84.48158	574.63959	
380	7.580	-669.19727	-53.47736	1555.61560				-576.30481	224.68292	816.24438	-681.10126	269.58014	711.61011	-574.07776	5.85450	805.41693				-723.36072	252.91327	640.02374	-584.25922	2.80444	1055.51965	-728.15869	249.33023	576.47144	-658.08380	22.88850	519.92120	-769.23846	256.69473	503.75223	-673.18018	210.86623	532.43713	-642.26801	-63.07907	868.40582	-663.50354	-67.39215	163.09610	-710.90137	153.19951	216.63333	-771.58099	222.82747	205.17284	-622.37610	-77.88226	158.82205	-882.67102	296.21390	144.65089	-675.80023	55.05347	157.94591	-603.80713	20.00168	166.54420	-675.71667	174.82346	157.95743	-594.63586	222.60023	173.49792	-667.30835	300.04865	159.26237	-629.90802	306.65921	161.65224	-559.37183	258.69748	165.50839	-527.99908	304.58014	146.82976	-672.79504	129.49884	1849.51208	-693.89301	307.50787	1540.16516	-517.57971	-72.69199	142.94670	-796.08453	172.22844	184.46597	-766.67212	-4.84354	210.23865	-794.60907	54.97355	175.84547	-685.67737	149.46211	573.42938	-755.89862	-29.63435	491.90002	-559.55042	-38.09519	163.86531	-876.02838	-78.54763	141.55200				-695.45074	-23.32150	614.09961	-706.50555	-20.00600	569.02191	-715.80170	78.35243	216.13353	-582.21088	227.31526	1074.70398	-783.44568	102.20208	1055.72571	-678.44965	84.40941	574.51923	
